<svg width="1440" height="383" viewBox="0 0 1440 383" fill="none" xmlns="http://www.w3.org/2000/svg">
<g clip-path="url(#clip0_198_13)">
<path d="M0 38.3L40 57.45C80 76.6 160 114.9 240 134.05C320 153.2 400 153.2 480 127.698C560 101.822 640 51.378 720 70.2478C800 89.678 880 178.422 960 191.5C1040 204.578 1120 140.122 1200 95.75C1280 51.378 1360 25.2219 1440 70.2478C1520 114.9 1600 229.8 1680 236.152C1760 242.878 1840 140.122 1920 102.102C2000 63.522 2080 89.678 2160 95.75C2240 101.822 2320 89.678 2400 70.2478C2480 51.378 2560 25.222 2640 31.9478C2720 38.3 2800 76.6 2880 108.548C2960 140.122 3040 166.278 3120 159.552C3200 153.2 3280 114.9 3360 95.75C3440 76.6 3520 76.6 3600 114.9C3680 153.2 3760 229.8 3840 274.452C3920 319.478 4000 331.622 4080 287.25C4160 242.878 4240 140.122 4320 114.9C4400 89.678 4480 140.122 4560 172.35C4640 204.578 4720 216.722 4800 236.152C4880 255.022 4960 281.178 5040 242.598C5120 204.578 5200 101.822 5280 57.45C5360 13.078 5440 25.222 5520 25.5022C5600 25.222 5680 13.078 5720 6.3522L5760 0V383H5720C5680 383 5600 383 5520 383C5440 383 5360 383 5280 383C5200 383 5120 383 5040 383C4960 383 4880 383 4800 383C4720 383 4640 383 4560 383C4480 383 4400 383 4320 383C4240 383 4160 383 4080 383C4000 383 3920 383 3840 383C3760 383 3680 383 3600 383C3520 383 3440 383 3360 383C3280 383 3200 383 3120 383C3040 383 2960 383 2880 383C2800 383 2720 383 2640 383C2560 383 2480 383 2400 383C2320 383 2240 383 2160 383C2080 383 2000 383 1920 383C1840 383 1760 383 1680 383C1600 383 1520 383 1440 383C1360 383 1280 383 1200 383C1120 383 1040 383 960 383C880 383 800 383 720 383C640 383 560 383 480 383C400 383 320 383 240 383C160 383 80 383 40 383H0V38.3Z" fill="url(#paint0_linear_198_13)"/>
</g>
<g clip-path="url(#clip1_198_13)">
<path d="M0 91.9L40 112.85C80 133.8 160 175.7 240 196.65C320 217.6 400 217.6 480 189.701C560 161.393 640 106.207 720 126.851C800 148.107 880 245.193 960 259.5C1040 273.807 1120 203.293 1200 154.75C1280 106.207 1360 77.5927 1440 126.851C1520 175.7 1600 301.4 1680 308.349C1760 315.707 1840 203.293 1920 161.699C2000 119.493 2080 148.107 2160 154.75C2240 161.393 2320 148.107 2400 126.851C2480 106.207 2560 77.5927 2640 84.9507C2720 91.9 2800 133.8 2880 168.751C2960 203.293 3040 231.907 3120 224.549C3200 217.6 3280 175.7 3360 154.75C3440 133.8 3520 133.8 3600 175.7C3680 217.6 3760 301.4 3840 350.249C3920 399.507 4000 412.793 4080 364.25C4160 315.707 4240 203.293 4320 175.7C4400 148.107 4480 203.293 4560 238.55C4640 273.807 4720 287.093 4800 308.349C4880 328.993 4960 357.607 5040 315.401C5120 273.807 5200 161.393 5280 112.85C5360 64.3073 5440 77.5927 5520 77.8993C5600 77.5927 5680 64.3073 5720 56.9493L5760 50V469H5720C5680 469 5600 469 5520 469C5440 469 5360 469 5280 469C5200 469 5120 469 5040 469C4960 469 4880 469 4800 469C4720 469 4640 469 4560 469C4480 469 4400 469 4320 469C4240 469 4160 469 4080 469C4000 469 3920 469 3840 469C3760 469 3680 469 3600 469C3520 469 3440 469 3360 469C3280 469 3200 469 3120 469C3040 469 2960 469 2880 469C2800 469 2720 469 2640 469C2560 469 2480 469 2400 469C2320 469 2240 469 2160 469C2080 469 2000 469 1920 469C1840 469 1760 469 1680 469C1600 469 1520 469 1440 469C1360 469 1280 469 1200 469C1120 469 1040 469 960 469C880 469 800 469 720 469C640 469 560 469 480 469C400 469 320 469 240 469C160 469 80 469 40 469H0L0 91.9Z" fill="#141414"/>
</g>
<defs>
<linearGradient id="paint0_linear_198_13" x1="0" y1="191.5" x2="5760" y2="191.5" gradientUnits="userSpaceOnUse">
<stop stop-color="#FFDF00"/>
<stop offset="1" stop-color="#A82665"/>
</linearGradient>
<clipPath id="clip0_198_13">
<rect width="1440" height="383" fill="white"/>
</clipPath>
<clipPath id="clip1_198_13">
<rect width="1440" height="419" fill="white" transform="translate(0 50)"/>
</clipPath>
</defs>
</svg>
