<svg width="1440" height="473" viewBox="0 0 1440 473" fill="none" xmlns="http://www.w3.org/2000/svg">
<g clip-path="url(#clip0_198_12)">
<path d="M1426 441.7L1386 426.05C1346 410.4 1266 379.1 1186 363.45C1106 347.8 1026 347.8 946 368.641C866 389.788 786 431.012 706 415.591C626 399.712 546 327.188 466 316.5C386 305.812 306 358.488 226 394.75C146 431.012 66 452.388 -14 415.591C-94 379.1 -174 285.2 -254 280.009C-334 274.512 -414 358.488 -494 389.559C-574 421.088 -654 399.712 -734 394.75C-814 389.788 -894 399.712 -974 415.591C-1054 431.012 -1134 452.388 -1214 446.891C-1294 441.7 -1374 410.4 -1454 384.291C-1534 358.488 -1614 337.112 -1694 342.609C-1774 347.8 -1854 379.1 -1934 394.75C-2014 410.4 -2094 410.4 -2174 379.1C-2254 347.8 -2334 285.2 -2414 248.709C-2494 211.912 -2574 201.988 -2654 238.25C-2734 274.512 -2814 358.488 -2894 379.1C-2974 399.712 -3054 358.488 -3134 332.15C-3214 305.812 -3294 295.888 -3374 280.009C-3454 264.588 -3534 243.212 -3614 274.741C-3694 305.812 -3774 389.788 -3854 426.05C-3934 462.312 -4014 452.388 -4094 452.159C-4174 452.388 -4254 462.312 -4294 467.809L-4334 473V160H-4294C-4254 160 -4174 160 -4094 160C-4014 160 -3934 160 -3854 160C-3774 160 -3694 160 -3614 160C-3534 160 -3454 160 -3374 160C-3294 160 -3214 160 -3134 160C-3054 160 -2974 160 -2894 160C-2814 160 -2734 160 -2654 160C-2574 160 -2494 160 -2414 160C-2334 160 -2254 160 -2174 160C-2094 160 -2014 160 -1934 160C-1854 160 -1774 160 -1694 160C-1614 160 -1534 160 -1454 160C-1374 160 -1294 160 -1214 160C-1134 160 -1054 160 -974 160C-894 160 -814 160 -734 160C-654 160 -574 160 -494 160C-414 160 -334 160 -254 160C-174 160 -94 160 -14 160C66 160 146 160 226 160C306 160 386 160 466 160C546 160 626 160 706 160C786 160 866 160 946 160C1026 160 1106 160 1186 160C1266 160 1346 160 1386 160H1426V441.7Z" fill="url(#paint0_linear_198_12)"/>
</g>
<g clip-path="url(#clip1_198_12)">
<path d="M1440 377.1L1400 356.15C1360 335.2 1280 293.3 1200 272.35C1120 251.4 1040 251.4 960 279.299C880 307.607 800 362.793 720 342.149C640 320.893 560 223.807 480 209.5C400 195.193 320 265.707 240 314.25C160 362.793 80 391.407 0 342.149C-80 293.3 -160 167.6 -240 160.651C-320 153.293 -400 265.707 -480 307.301C-560 349.507 -640 320.893 -720 314.25C-800 307.607 -880 320.893 -960 342.149C-1040 362.793 -1120 391.407 -1200 384.049C-1280 377.1 -1360 335.2 -1440 300.249C-1520 265.707 -1600 237.093 -1680 244.451C-1760 251.4 -1840 293.3 -1920 314.25C-2000 335.2 -2080 335.2 -2160 293.3C-2240 251.4 -2320 167.6 -2400 118.751C-2480 69.4927 -2560 56.2073 -2640 104.75C-2720 153.293 -2800 265.707 -2880 293.3C-2960 320.893 -3040 265.707 -3120 230.45C-3200 195.193 -3280 181.907 -3360 160.651C-3440 140.007 -3520 111.393 -3600 153.599C-3680 195.193 -3760 307.607 -3840 356.15C-3920 404.693 -4000 391.407 -4080 391.101C-4160 391.407 -4240 404.693 -4280 412.051L-4320 419V0H-4280C-4240 0 -4160 0 -4080 0C-4000 0 -3920 0 -3840 0C-3760 0 -3680 0 -3600 0C-3520 0 -3440 0 -3360 0C-3280 0 -3200 0 -3120 0C-3040 0 -2960 0 -2880 0C-2800 0 -2720 0 -2640 0C-2560 0 -2480 0 -2400 0C-2320 0 -2240 0 -2160 0C-2080 0 -2000 0 -1920 0C-1840 0 -1760 0 -1680 0C-1600 0 -1520 0 -1440 0C-1360 0 -1280 0 -1200 0C-1120 0 -1040 0 -960 0C-880 0 -800 0 -720 0C-640 0 -560 0 -480 0C-400 0 -320 0 -240 0C-160 0 -80 0 0 0C80 0 160 0 240 0C320 0 400 0 480 0C560 0 640 0 720 0C800 0 880 0 960 0C1040 0 1120 0 1200 0C1280 0 1360 0 1400 0H1440V377.1Z" fill="#141414"/>
</g>
<defs>
<linearGradient id="paint0_linear_198_12" x1="1426" y1="316.5" x2="-4334" y2="316.5" gradientUnits="userSpaceOnUse">
<stop stop-color="#FFDF00"/>
<stop offset="1" stop-color="#A82665"/>
</linearGradient>
<clipPath id="clip0_198_12">
<rect width="1440" height="313" fill="white" transform="matrix(-1 0 0 -1 1426 473)"/>
</clipPath>
<clipPath id="clip1_198_12">
<rect width="1440" height="419" fill="white" transform="matrix(-1 0 0 -1 1440 419)"/>
</clipPath>
</defs>
</svg>
